<svg width="1000" height="180" viewBox="0 0 1000 180" fill="none" xmlns="http://www.w3.org/2000/svg">
<path d="M110.88 24.7798V130.02H97.54V82.1398H39.58V130.02H26.24V24.7798H39.58V70.2898H97.54V24.7798H110.88Z" fill="white"/>
<path d="M132.26 99.2301V53.0901H145.3V96.6801C145.3 104.54 146.68 110.43 149.45 114.35C152.21 118.28 156.32 120.24 161.75 120.24C165.31 120.24 168.74 119.48 172.05 117.96C175.36 116.44 178.35 114.26 181.02 111.42C183.69 108.58 185.76 105.2 187.25 101.28V53.0801H200.29V115.22C200.29 116.79 200.61 117.94 201.25 118.68C201.89 119.42 202.95 119.83 204.44 119.93V130.01C202.96 130.21 201.8 130.33 200.96 130.38C200.12 130.43 199.3 130.45 198.51 130.45C196.04 130.45 193.92 129.69 192.14 128.17C190.36 126.65 189.42 124.76 189.32 122.5L189.02 113.51C185.66 119.21 181.14 123.63 175.46 126.78C169.78 129.93 163.58 131.5 156.86 131.5C148.76 131.5 142.63 128.77 138.48 123.32C134.34 117.87 132.26 109.84 132.26 99.2301Z" fill="white"/>
<path d="M249.62 131.5C243.2 131.5 237.17 130.44 231.54 128.31C225.91 126.19 221.06 123 217.01 118.75L222.05 109.56C226.5 113.71 230.94 116.67 235.39 118.45C239.84 120.23 244.38 121.12 249.03 121.12C254.37 121.12 258.71 120.12 262.07 118.12C265.43 116.12 267.11 113.18 267.11 109.27C267.11 106.43 266.24 104.32 264.52 102.95C262.79 101.58 260.34 100.42 257.18 99.4899C254.02 98.5599 250.26 97.4999 245.91 96.3299C240.57 94.7599 236.08 93.0899 232.42 91.3299C228.76 89.5699 226 87.3599 224.12 84.7099C222.24 82.0599 221.3 78.7299 221.3 74.6999C221.3 69.7999 222.58 65.6499 225.15 62.2699C227.72 58.8899 231.25 56.3099 235.75 54.5499C240.25 52.7799 245.36 51.8999 251.09 51.8999C256.82 51.8999 262.01 52.7899 266.65 54.5699C271.29 56.3499 275.3 58.9699 278.66 62.4299L272.73 71.4699C269.67 68.3099 266.31 65.9599 262.65 64.4299C258.99 62.8999 254.89 62.1299 250.35 62.1299C247.68 62.1299 245.06 62.4499 242.49 63.0899C239.92 63.7299 237.79 64.8499 236.12 66.4699C234.44 68.0899 233.6 70.3699 233.6 73.3099C233.6 75.7599 234.27 77.6899 235.6 79.1099C236.93 80.5299 238.91 81.7299 241.53 82.7099C244.15 83.6899 247.33 84.7699 251.09 85.9399C256.92 87.6099 261.98 89.2699 266.28 90.9399C270.58 92.5999 273.91 94.7599 276.29 97.4099C278.66 100.05 279.85 103.73 279.85 108.43C279.85 115.68 277.08 121.34 271.55 125.41C266.02 129.47 258.71 131.5 249.62 131.5Z" fill="white"/>
<path d="M374.57 131.5C368.24 131.5 362.61 129.93 357.67 126.79C352.73 123.65 348.83 119.68 345.96 114.87V161.59H332.92V53.0897H344.48V67.6497C347.54 62.9397 351.54 59.1397 356.49 56.2497C361.43 53.3597 366.82 51.9097 372.65 51.9097C377.99 51.9097 382.88 52.9897 387.32 55.1497C391.77 57.3097 395.62 60.2497 398.88 63.9797C402.14 67.7097 404.68 71.9497 406.51 76.7097C408.34 81.4697 409.25 86.4497 409.25 91.6397C409.25 98.8997 407.79 105.57 404.88 111.65C401.96 117.73 397.89 122.56 392.65 126.14C387.42 129.72 381.39 131.5 374.57 131.5ZM370.57 120.24C374.42 120.24 377.91 119.43 381.02 117.82C384.13 116.21 386.8 114.06 389.02 111.36C391.24 108.67 392.95 105.61 394.13 102.19C395.32 98.7697 395.91 95.2497 395.91 91.6297C395.91 87.8197 395.24 84.1997 393.91 80.7797C392.58 77.3597 390.7 74.3297 388.28 71.6897C385.86 69.0497 383.04 66.9697 379.83 65.4597C376.62 63.9397 373.13 63.1897 369.38 63.1897C367.01 63.1897 364.56 63.6297 362.04 64.5097C359.52 65.3897 357.12 66.6297 354.85 68.2397C352.58 69.8497 350.65 71.6797 349.07 73.7297C347.49 75.7797 346.45 77.9797 345.96 80.3197V102.24C347.44 105.56 349.42 108.59 351.89 111.32C354.36 114.05 357.23 116.23 360.49 117.84C363.75 119.43 367.11 120.24 370.57 120.24Z" fill="white"/>
<path d="M419.18 107.79C419.18 102.88 420.59 98.6299 423.4 95.0499C426.22 91.4599 430.09 88.6899 435.04 86.7299C439.98 84.7699 445.71 83.7799 452.23 83.7799C455.69 83.7799 459.35 84.0499 463.2 84.5899C467.05 85.1299 470.46 85.9499 473.43 87.0399V81.4399C473.43 75.5899 471.65 70.9899 468.09 67.6299C464.53 64.2699 459.49 62.5899 452.97 62.5899C448.72 62.5899 444.64 63.3599 440.74 64.8899C436.84 66.4199 432.71 68.6199 428.36 71.4899L423.62 62.2999C428.66 58.8399 433.7 56.2499 438.74 54.5199C443.78 52.7899 449.02 51.9299 454.45 51.9299C464.33 51.9299 472.14 54.6499 477.87 60.0899C483.6 65.5299 486.47 73.0899 486.47 82.7899V115.27C486.47 116.84 486.79 117.99 487.43 118.72C488.07 119.46 489.14 119.87 490.62 119.97V130.05C489.33 130.25 488.22 130.39 487.28 130.49C486.34 130.59 485.57 130.64 484.98 130.64C481.92 130.64 479.62 129.8 478.09 128.12C476.56 126.44 475.69 124.66 475.5 122.78L475.2 117.89C471.84 122.24 467.44 125.6 462.01 127.97C456.57 130.34 451.19 131.53 445.85 131.53C440.71 131.53 436.12 130.47 432.07 128.36C428.02 126.25 424.86 123.4 422.58 119.82C420.32 116.21 419.18 112.21 419.18 107.79ZM469.58 113.21C470.77 111.84 471.7 110.45 472.4 109.03C473.09 107.61 473.44 106.41 473.44 105.44V95.8999C470.38 94.7299 467.16 93.8199 463.81 93.1899C460.45 92.5599 457.14 92.2399 453.88 92.2399C447.26 92.2399 441.9 93.5399 437.8 96.1299C433.7 98.7199 431.65 102.27 431.65 106.77C431.65 109.21 432.32 111.59 433.65 113.89C434.98 116.19 436.96 118.07 439.58 119.54C442.2 121.01 445.44 121.74 449.29 121.74C453.34 121.74 457.19 120.93 460.85 119.32C464.49 117.69 467.41 115.65 469.58 113.21ZM440.08 31.4499C440.08 27.4999 441.41 24.3399 444.08 21.9599C446.75 19.5899 450.11 18.3999 454.16 18.3999C458.31 18.3999 461.69 19.5899 464.31 21.9599C466.93 24.3299 468.24 27.4999 468.24 31.4499C468.24 35.2999 466.93 38.3899 464.31 40.7099C461.69 43.0299 458.31 44.1899 454.16 44.1899C450.11 44.1899 446.75 43.0299 444.08 40.7099C441.42 38.3899 440.08 35.2999 440.08 31.4499ZM454.17 24.3399C452.29 24.3399 450.66 24.9599 449.28 26.1899C447.9 27.4299 447.2 29.1799 447.2 31.4499C447.2 33.4299 447.87 35.0799 449.2 36.4199C450.53 37.7499 452.19 38.4199 454.17 38.4199C456.05 38.4199 457.7 37.7799 459.14 36.4899C460.57 35.2099 461.29 33.5299 461.29 31.4499C461.29 29.1799 460.6 27.4199 459.21 26.1899C457.82 24.9499 456.14 24.3399 454.17 24.3399Z" fill="white"/>
<path d="M628.63 24.7798V130.02H615.29V82.1398H557.33V130.02H543.99V24.7798H557.33V70.2898H615.29V24.7798H628.63Z" fill="white"/>
<path d="M641.82 157.59C638.46 157.59 635.25 157.09 632.19 156.11C629.13 155.12 626.41 153.54 624.04 151.37L630.12 142.62C631.51 143.9 633.11 144.79 634.94 145.29C636.77 145.78 638.57 146.03 640.35 146.03C642.52 146.03 644.55 145.49 646.43 144.41C648.31 143.33 649.84 141.83 651.02 139.91C652.21 137.99 652.8 135.85 652.8 133.49V53.09H665.84V132.65C665.84 137.47 664.7 141.78 662.43 145.57C660.16 149.36 657.22 152.31 653.61 154.42C649.99 156.53 646.07 157.59 641.82 157.59ZM652.79 38.57V22.27H665.83V38.57H652.79Z" fill="white"/>
<path d="M686.14 99.2301V53.0901H699.19V96.6801C699.19 104.54 700.57 110.43 703.34 114.35C706.1 118.28 710.21 120.24 715.64 120.24C719.2 120.24 722.63 119.48 725.94 117.96C729.25 116.44 732.24 114.26 734.91 111.42C737.58 108.58 739.65 105.2 741.14 101.28V53.0801H754.18V115.22C754.18 116.79 754.5 117.94 755.14 118.68C755.78 119.42 756.84 119.83 758.33 119.93V130.01C756.85 130.21 755.69 130.33 754.85 130.38C754.01 130.43 753.19 130.45 752.4 130.45C749.93 130.45 747.81 129.69 746.03 128.17C744.25 126.65 743.31 124.76 743.21 122.5L742.91 113.51C739.55 119.21 735.03 123.63 729.35 126.78C723.67 129.93 717.47 131.5 710.75 131.5C702.65 131.5 696.52 128.77 692.37 123.32C688.21 117.87 686.14 109.84 686.14 99.2301Z" fill="white"/>
<path d="M776.26 21.8198H789.3V110.42C789.3 114.69 789.89 117.32 791.08 118.31C792.27 119.3 793.7 119.8 795.38 119.8C797.45 119.8 799.43 119.58 801.31 119.13C803.19 118.68 804.77 118.22 806.05 117.72L808.12 128.39C805.95 129.28 803.38 130.02 800.41 130.61C797.45 131.2 794.83 131.5 792.55 131.5C787.51 131.5 783.53 130.06 780.62 127.18C777.7 124.3 776.25 120.28 776.25 115.12V21.8198H776.26Z" fill="white"/>
<path d="M972.5 64.3099H958.75H906.8L934.5 36.5999L944.45 26.6499C940.23 24.3199 935.69 22.5199 930.91 21.3299C926.53 20.2399 921.95 19.6499 917.24 19.6499C886.08 19.6499 860.72 44.9999 860.72 76.1699C860.72 101.95 878.08 123.74 901.72 130.5C905.98 131.72 910.45 132.45 915.06 132.63C915.78 132.66 916.51 132.69 917.24 132.69C919.98 132.69 922.67 132.48 925.3 132.11C929.95 131.44 934.42 130.21 938.64 128.47V113.65V100.63H952.79H968.18C970.2 96.4399 971.71 91.9699 972.65 87.2899C973.28 84.1599 973.63 80.9399 973.72 77.6599C973.73 77.1699 973.76 76.6699 973.76 76.1799C973.76 72.0999 973.32 68.1399 972.5 64.3099ZM874.07 76.1699C874.07 52.3599 893.44 32.9899 917.25 32.9899C917.91 32.9899 918.56 33.0099 919.21 33.0399L887.95 64.2999H887.94V77.6399H901.73V116.44C885.57 110.2 874.07 94.5099 874.07 76.1699ZM958.96 87.2899H938.65H925.31V100.63V118.58C922.7 119.08 920 119.35 917.25 119.35C916.52 119.35 915.8 119.33 915.07 119.29V77.6499H960.38C960.27 80.9699 959.78 84.1999 958.96 87.2899Z" fill="white"/>
</svg>
