<svg width="1000" height="180" viewBox="0 0 1000 180" fill="none" xmlns="http://www.w3.org/2000/svg">
<path d="M110.878 24.7798V130.02H97.5383V82.1398H39.5783V130.02H26.2383V24.7798H39.5783V70.2898H97.5383V24.7798H110.878Z" fill="white"/>
<path d="M132.258 99.2301V53.0901H145.298V96.6801C145.298 104.54 146.678 110.43 149.448 114.35C152.208 118.28 156.318 120.24 161.748 120.24C165.308 120.24 168.738 119.48 172.048 117.96C175.358 116.44 178.348 114.26 181.018 111.42C183.688 108.58 185.758 105.2 187.248 101.28V53.0801H200.288V115.22C200.288 116.79 200.608 117.94 201.248 118.68C201.888 119.42 202.948 119.83 204.438 119.93V130.01C202.958 130.21 201.798 130.33 200.958 130.38C200.118 130.43 199.298 130.45 198.508 130.45C196.038 130.45 193.918 129.69 192.138 128.17C190.358 126.65 189.418 124.76 189.318 122.5L189.018 113.51C185.658 119.21 181.138 123.63 175.458 126.78C169.778 129.93 163.578 131.5 156.858 131.5C148.758 131.5 142.628 128.77 138.478 123.32C134.338 117.87 132.258 109.84 132.258 99.2301Z" fill="white"/>
<path d="M249.618 131.5C243.198 131.5 237.168 130.44 231.538 128.31C225.908 126.19 221.058 123 217.008 118.75L222.048 109.56C226.498 113.71 230.938 116.67 235.388 118.45C239.838 120.23 244.378 121.12 249.028 121.12C254.368 121.12 258.708 120.12 262.068 118.12C265.428 116.12 267.108 113.18 267.108 109.27C267.108 106.43 266.238 104.32 264.518 102.95C262.788 101.58 260.338 100.42 257.178 99.4899C254.018 98.5599 250.258 97.4999 245.908 96.3299C240.568 94.7599 236.078 93.0899 232.418 91.3299C228.758 89.5699 225.998 87.3599 224.118 84.7099C222.238 82.0599 221.298 78.7299 221.298 74.6999C221.298 69.7999 222.578 65.6499 225.148 62.2699C227.718 58.8899 231.248 56.3099 235.748 54.5499C240.248 52.7799 245.358 51.8999 251.088 51.8999C256.818 51.8999 262.008 52.7899 266.648 54.5699C271.288 56.3499 275.298 58.9699 278.658 62.4299L272.728 71.4699C269.668 68.3099 266.308 65.9599 262.648 64.4299C258.988 62.8999 254.888 62.1299 250.348 62.1299C247.678 62.1299 245.058 62.4499 242.488 63.0899C239.918 63.7299 237.788 64.8499 236.118 66.4699C234.438 68.0899 233.598 70.3699 233.598 73.3099C233.598 75.7599 234.268 77.6899 235.598 79.1099C236.928 80.5299 238.908 81.7299 241.528 82.7099C244.148 83.6899 247.328 84.7699 251.088 85.9399C256.918 87.6099 261.978 89.2699 266.278 90.9399C270.578 92.5999 273.908 94.7599 276.288 97.4099C278.658 100.05 279.848 103.73 279.848 108.43C279.848 115.68 277.078 121.34 271.548 125.41C266.018 129.47 258.708 131.5 249.618 131.5Z" fill="white"/>
<path d="M374.568 131.5C368.238 131.5 362.608 129.93 357.668 126.79C352.728 123.65 348.828 119.68 345.958 114.87V161.59H332.918V53.0897H344.478V67.6497C347.538 62.9397 351.538 59.1397 356.488 56.2497C361.428 53.3597 366.818 51.9097 372.648 51.9097C377.988 51.9097 382.878 52.9897 387.318 55.1497C391.768 57.3097 395.618 60.2497 398.878 63.9797C402.138 67.7097 404.678 71.9497 406.508 76.7097C408.338 81.4697 409.248 86.4497 409.248 91.6397C409.248 98.8997 407.788 105.57 404.878 111.65C401.958 117.73 397.888 122.56 392.648 126.14C387.418 129.72 381.388 131.5 374.568 131.5ZM370.568 120.24C374.418 120.24 377.908 119.43 381.018 117.82C384.128 116.21 386.798 114.06 389.018 111.36C391.238 108.67 392.948 105.61 394.128 102.19C395.318 98.7697 395.908 95.2497 395.908 91.6297C395.908 87.8197 395.238 84.1997 393.908 80.7797C392.578 77.3597 390.698 74.3297 388.278 71.6897C385.858 69.0497 383.038 66.9697 379.828 65.4597C376.618 63.9397 373.128 63.1897 369.378 63.1897C367.008 63.1897 364.558 63.6297 362.038 64.5097C359.518 65.3897 357.118 66.6297 354.848 68.2397C352.578 69.8497 350.648 71.6797 349.068 73.7297C347.488 75.7797 346.448 77.9797 345.958 80.3197V102.24C347.438 105.56 349.418 108.59 351.888 111.32C354.358 114.05 357.228 116.23 360.488 117.84C363.748 119.43 367.108 120.24 370.568 120.24Z" fill="white"/>
<path d="M419.18 107.79C419.18 102.88 420.59 98.6299 423.4 95.0499C426.22 91.4599 430.09 88.6899 435.04 86.7299C439.98 84.7699 445.71 83.7799 452.23 83.7799C455.69 83.7799 459.35 84.0499 463.2 84.5899C467.05 85.1299 470.46 85.9499 473.43 87.0399V81.4399C473.43 75.5899 471.65 70.9899 468.09 67.6299C464.53 64.2699 459.49 62.5899 452.97 62.5899C448.72 62.5899 444.64 63.3599 440.74 64.8899C436.84 66.4199 432.71 68.6199 428.36 71.4899L423.62 62.2999C428.66 58.8399 433.7 56.2499 438.74 54.5199C443.78 52.7899 449.02 51.9299 454.45 51.9299C464.33 51.9299 472.14 54.6499 477.87 60.0899C483.6 65.5299 486.47 73.0899 486.47 82.7899V115.27C486.47 116.84 486.79 117.99 487.43 118.72C488.07 119.46 489.14 119.87 490.62 119.97V130.05C489.33 130.25 488.22 130.39 487.28 130.49C486.34 130.59 485.57 130.64 484.98 130.64C481.92 130.64 479.62 129.8 478.09 128.12C476.56 126.44 475.69 124.66 475.5 122.78L475.2 117.89C471.84 122.24 467.44 125.6 462.01 127.97C456.57 130.34 451.19 131.53 445.85 131.53C440.71 131.53 436.12 130.47 432.07 128.36C428.02 126.25 424.86 123.4 422.58 119.82C420.32 116.21 419.18 112.21 419.18 107.79ZM469.58 113.21C470.77 111.84 471.7 110.45 472.4 109.03C473.09 107.61 473.44 106.41 473.44 105.44V95.8999C470.38 94.7299 467.16 93.8199 463.81 93.1899C460.45 92.5599 457.14 92.2399 453.88 92.2399C447.26 92.2399 441.9 93.5399 437.8 96.1299C433.7 98.7199 431.65 102.27 431.65 106.77C431.65 109.21 432.32 111.59 433.65 113.89C434.98 116.19 436.96 118.07 439.58 119.54C442.2 121.01 445.44 121.74 449.29 121.74C453.34 121.74 457.19 120.93 460.85 119.32C464.49 117.69 467.41 115.65 469.58 113.21ZM440.08 31.4499C440.08 27.4999 441.41 24.3399 444.08 21.9599C446.75 19.5899 450.11 18.3999 454.16 18.3999C458.31 18.3999 461.69 19.5899 464.31 21.9599C466.93 24.3299 468.24 27.4999 468.24 31.4499C468.24 35.2999 466.93 38.3899 464.31 40.7099C461.69 43.0299 458.31 44.1899 454.16 44.1899C450.11 44.1899 446.75 43.0299 444.08 40.7099C441.42 38.3899 440.08 35.2999 440.08 31.4499ZM454.17 24.3399C452.29 24.3399 450.66 24.9599 449.28 26.1899C447.9 27.4299 447.2 29.1799 447.2 31.4499C447.2 33.4299 447.87 35.0799 449.2 36.4199C450.53 37.7499 452.19 38.4199 454.17 38.4199C456.05 38.4199 457.7 37.7799 459.14 36.4899C460.57 35.2099 461.29 33.5299 461.29 31.4499C461.29 29.1799 460.6 27.4199 459.21 26.1899C457.82 24.9499 456.14 24.3399 454.17 24.3399Z" fill="white"/>
<path d="M628.628 24.7798V130.02H615.288V82.1398H557.328V130.02H543.988V24.7798H557.328V70.2898H615.288V24.7798H628.628Z" fill="white"/>
<path d="M641.819 157.59C638.459 157.59 635.249 157.09 632.189 156.11C629.129 155.12 626.409 153.54 624.039 151.37L630.119 142.62C631.509 143.9 633.109 144.79 634.939 145.29C636.769 145.78 638.569 146.03 640.349 146.03C642.519 146.03 644.549 145.49 646.429 144.41C648.309 143.33 649.839 141.83 651.019 139.91C652.209 137.99 652.799 135.85 652.799 133.49V53.09H665.839V132.65C665.839 137.47 664.699 141.78 662.429 145.57C660.159 149.36 657.219 152.31 653.609 154.42C649.989 156.53 646.069 157.59 641.819 157.59ZM652.789 38.57V22.27H665.829V38.57H652.789Z" fill="white"/>
<path d="M686.137 99.2301V53.0901H699.187V96.6801C699.187 104.54 700.567 110.43 703.337 114.35C706.097 118.28 710.207 120.24 715.637 120.24C719.197 120.24 722.627 119.48 725.937 117.96C729.247 116.44 732.237 114.26 734.907 111.42C737.577 108.58 739.647 105.2 741.137 101.28V53.0801H754.177V115.22C754.177 116.79 754.497 117.94 755.137 118.68C755.777 119.42 756.837 119.83 758.327 119.93V130.01C756.847 130.21 755.687 130.33 754.847 130.38C754.007 130.43 753.187 130.45 752.397 130.45C749.927 130.45 747.807 129.69 746.027 128.17C744.247 126.65 743.307 124.76 743.207 122.5L742.907 113.51C739.547 119.21 735.027 123.63 729.347 126.78C723.667 129.93 717.467 131.5 710.747 131.5C702.647 131.5 696.517 128.77 692.367 123.32C688.207 117.87 686.137 109.84 686.137 99.2301Z" fill="white"/>
<path d="M776.26 21.8198H789.3V110.42C789.3 114.69 789.89 117.32 791.08 118.31C792.27 119.3 793.7 119.8 795.38 119.8C797.45 119.8 799.43 119.58 801.31 119.13C803.19 118.68 804.77 118.22 806.05 117.72L808.12 128.39C805.95 129.28 803.38 130.02 800.41 130.61C797.45 131.2 794.83 131.5 792.55 131.5C787.51 131.5 783.53 130.06 780.62 127.18C777.7 124.3 776.25 120.28 776.25 115.12V21.8198H776.26Z" fill="white"/>
<path d="M972.499 64.3099H958.749H906.799L934.499 36.5999L944.449 26.6499C940.229 24.3199 935.689 22.5199 930.909 21.3299C926.529 20.2399 921.949 19.6499 917.239 19.6499C886.079 19.6499 860.719 44.9999 860.719 76.1699C860.719 101.95 878.079 123.74 901.719 130.5C905.979 131.72 910.449 132.45 915.059 132.63C915.779 132.66 916.509 132.69 917.239 132.69C919.979 132.69 922.669 132.48 925.299 132.11C929.949 131.44 934.419 130.21 938.639 128.47V113.65V100.63H952.789H968.179C970.199 96.4399 971.709 91.9699 972.649 87.2899C973.279 84.1599 973.629 80.9399 973.719 77.6599C973.729 77.1699 973.759 76.6699 973.759 76.1799C973.759 72.0999 973.319 68.1399 972.499 64.3099ZM874.069 76.1699C874.069 52.3599 893.439 32.9899 917.249 32.9899C917.909 32.9899 918.559 33.0099 919.209 33.0399L887.949 64.2999H887.939V77.6399H901.729V116.44C885.569 110.2 874.069 94.5099 874.069 76.1699ZM958.959 87.2899H938.649H925.309V100.63V118.58C922.699 119.08 919.999 119.35 917.249 119.35C916.519 119.35 915.799 119.33 915.069 119.29V77.6499H960.379C960.269 80.9699 959.779 84.1999 958.959 87.2899Z" fill="white"/>
</svg>
