<svg width="171" height="32" viewBox="0 0 171 32" fill="none" xmlns="http://www.w3.org/2000/svg">
<path d="M15.0032 1.8585V11.3537H4.12249V1.8585H0V25.0391H4.12249V14.9694H15.0032V25.0391H19.1257V1.8585H15.0032Z" fill="white"/>
<path d="M34.353 8.48152V17.8754C34.353 20.1732 32.8999 21.66 30.9739 21.66C28.9126 21.66 27.8313 20.3759 27.8313 18.3147V8.48152H23.7088V19.1932C23.7088 22.6737 25.7025 25.208 29.4533 25.208C31.7511 25.208 33.4068 24.1605 34.3867 22.6399L34.5219 25.0391H38.4754V8.48152H34.353Z" fill="white"/>
<path d="M55.7603 20.4097C55.7603 13.584 46.1975 16.321 46.1975 13.0433C46.1975 11.9958 47.076 11.32 49.0021 11.32C50.7592 11.32 51.8068 12.0296 51.9081 13.4826H55.5238C55.4562 10.2049 53.1922 8.31257 49.0359 8.31257C44.812 8.31257 42.2101 10.1711 42.2101 13.1447C42.2101 19.7677 51.773 17.1658 51.773 20.5111C51.773 21.5586 50.8606 22.2006 48.7318 22.2006C46.4678 22.2006 45.5216 21.4234 45.4203 20.0042L41.8384 19.9704C41.8722 23.3157 44.1362 25.208 48.7318 25.208C53.1246 25.208 55.7941 23.3833 55.7603 20.4097Z" fill="white"/>
<path d="M75.9393 8.31257C73.3712 8.31257 71.614 9.46146 70.6003 11.0158L70.5327 8.48152H66.5454V31.831H70.6341V22.5723C71.5803 24.1267 73.236 25.208 75.7703 25.208C80.2983 25.208 83.2381 21.6262 83.2381 16.5238C83.2381 11.3537 80.2307 8.31257 75.9393 8.31257ZM74.9931 21.7276C72.1547 21.7276 70.6341 19.3622 70.6341 17.2334V16.2534C70.6341 14.226 72.1209 11.793 75.0269 11.793C77.4937 11.793 79.0818 13.6853 79.0818 16.6589C79.0818 19.7001 77.4261 21.7276 74.9931 21.7276Z" fill="white"/>
<path d="M93.7355 6.55544C95.5602 6.55544 97.1484 5.30517 97.1484 3.31151C97.1484 1.28406 95.5602 0 93.7355 0C91.877 0 90.2888 1.28406 90.2888 3.31151C90.2888 5.30517 91.877 6.55544 93.7355 6.55544ZM93.7355 2.16262C94.4451 2.16262 94.9519 2.63569 94.9519 3.31151C94.9519 3.95354 94.4451 4.4604 93.7355 4.4604C92.9921 4.4604 92.5528 3.95354 92.5528 3.31151C92.5528 2.63569 92.9921 2.16262 93.7355 2.16262ZM102.386 21.5586C102.014 21.6938 101.812 21.7276 101.541 21.7276C101.034 21.7276 100.696 21.3559 100.696 20.7138V14.9018C100.696 10.7793 98.1621 8.31257 93.4651 8.31257C89.2413 8.31257 86.3691 10.3738 86.0987 14.0908H89.8833C90.0523 12.4689 91.2687 11.5227 93.2286 11.5227C95.5264 11.5227 96.6753 12.7392 96.6753 14.6653V15.51H94.1072C89.5792 15.51 85.6932 16.7941 85.6932 20.7138C85.6932 23.3833 87.6193 25.208 91.3025 25.208C94.8506 25.208 96.3036 23.5185 96.8442 22.5048C97.3173 24.2957 98.6352 25.208 100.426 25.208C101.271 25.208 102.014 25.0729 102.656 24.9039L102.386 21.5586ZM92.3838 22.1331C90.5591 22.1331 89.7144 21.4572 89.7144 20.2746C89.7144 18.7202 91.2012 17.9092 93.9044 17.9092H96.6753V18.9905C96.6753 20.4097 95.0871 22.1331 92.3838 22.1331Z" fill="white"/>
<path d="M128.223 1.8585V11.3537H117.342V1.8585H113.219V25.0391H117.342V14.9694H128.223V25.0391H132.345V1.8585H128.223Z" fill="white"/>
<path d="M142.398 3.10876C142.398 1.62197 141.182 0.506865 139.661 0.506865C138.174 0.506865 136.992 1.62197 136.992 3.10876C136.992 4.66315 138.174 5.74446 139.661 5.74446C141.182 5.74446 142.398 4.66315 142.398 3.10876ZM135.437 32C139.188 32 141.655 29.5333 141.655 25.7149V8.48152H137.532V25.5459C137.532 27.472 136.451 28.5195 134.626 28.5195C133.984 28.5195 133.579 28.3844 133.038 28.1816L132.802 31.6621C133.376 31.8648 134.424 32 135.437 32Z" fill="white"/>
<path d="M156.515 8.48152V17.8754C156.515 20.1732 155.062 21.66 153.136 21.66C151.075 21.66 149.993 20.3759 149.993 18.3147V8.48152H145.871V19.1932C145.871 22.6737 147.865 25.208 151.615 25.208C153.913 25.208 155.569 24.1605 156.549 22.6399L156.684 25.0391H160.638V8.48152H156.515Z" fill="white"/>
<path d="M170.691 21.5586C170.319 21.6938 170.15 21.7276 169.88 21.7276C169.373 21.7276 169.002 21.3559 169.002 20.7138V1.04752H164.913V21.0517C164.913 23.6874 166.231 25.208 168.697 25.208C169.61 25.208 170.319 25.0729 170.961 24.9039L170.691 21.5586Z" fill="white"/>
</svg>
